<?xml version="1.0" standalone="no"?>
<!DOCTYPE svg PUBLIC "-//W3C//DTD SVG 20010904//EN"
 "http://www.w3.org/TR/2001/REC-SVG-20010904/DTD/svg10.dtd">
<svg version="1.0" xmlns="http://www.w3.org/2000/svg"
 width="700.000000pt" height="700.000000pt" viewBox="0 0 700.000000 700.000000"
 preserveAspectRatio="xMidYMid meet">
<metadata>
Created by potrace 1.11, written by Peter Selinger 2001-2013
</metadata>
<g transform="translate(0.000000,700.000000) scale(0.100000,-0.100000)"
fill="#000000" stroke="none">
<path d="M3240 6980 c-244 -41 -408 -105 -605 -235 -216 -143 -415 -373 -542
-627 -46 -94 -86 -189 -81 -194 2 -2 26 27 53 64 104 141 296 321 456 427 202
133 495 247 695 271 33 3 68 8 79 11 11 2 88 6 170 7 417 9 784 -108 1107
-352 147 -111 263 -231 405 -418 l22 -29 -15 40 c-33 84 -40 102 -87 192 -45
90 -134 229 -193 303 -108 135 -315 307 -468 389 -129 68 -337 135 -486 156
-109 16 -404 12 -510 -5z"/>
<path d="M3499 6074 c-1 -54 -2 -119 -4 -144 -11 -144 -17 -218 -19 -245 -6
-55 -18 -160 -21 -175 -2 -8 -6 -42 -10 -75 -3 -33 -11 -79 -16 -103 -5 -23
-11 -57 -14 -75 -16 -96 -63 -270 -76 -277 -8 -4 -39 -11 -69 -15 -30 -4 -58
-9 -61 -11 -3 -2 -21 -6 -40 -9 -111 -18 -338 -112 -452 -187 -32 -21 -61 -38
-63 -38 -3 0 -42 -31 -87 -69 -206 -172 -347 -363 -441 -598 -40 -99 -89 -285
-98 -367 -3 -28 -8 -31 -73 -48 -152 -39 -356 -76 -505 -92 -30 -4 -71 -8 -90
-10 -86 -11 -234 -22 -357 -27 -79 -3 -82 -15 -6 -18 32 -1 85 -4 118 -6 33
-3 87 -7 120 -9 142 -11 308 -31 425 -51 111 -20 155 -29 225 -46 142 -35 145
-37 145 -71 0 -17 14 -86 30 -154 81 -329 258 -606 523 -817 191 -154 476
-276 702 -303 28 -3 55 -12 61 -20 13 -17 57 -198 79 -326 8 -48 17 -97 20
-110 2 -13 7 -45 10 -73 3 -27 7 -68 10 -90 8 -57 13 -116 20 -225 4 -52 8
-113 10 -135 2 -22 4 -82 4 -134 1 -52 3 -92 5 -90 2 2 7 65 11 139 12 244 18
315 41 505 4 36 27 181 40 260 14 88 68 287 78 290 6 2 27 6 46 9 453 70 847
342 1072 741 84 148 158 366 173 509 l7 65 67 20 c36 11 77 22 91 25 14 3 54
12 90 20 36 8 82 17 102 20 21 3 57 10 80 15 41 9 77 14 178 26 25 3 61 7 80
10 34 4 109 11 215 20 28 2 104 7 170 10 66 4 122 9 124 11 2 2 -45 5 -105 5
-147 2 -378 14 -444 24 -14 2 -52 7 -85 10 -33 3 -71 8 -85 10 -14 2 -45 7
-70 10 -25 3 -56 8 -70 10 -14 3 -34 7 -45 9 -70 14 -178 38 -228 51 -32 8
-60 15 -62 15 -3 0 -5 11 -5 25 0 82 -87 360 -151 480 -122 232 -296 427 -504
563 -164 108 -331 175 -537 216 l-113 23 -17 64 c-34 123 -74 336 -93 494 -4
28 -8 61 -10 75 -2 14 -7 66 -11 115 -3 50 -8 106 -9 125 -2 19 -6 98 -10 175
-4 77 -8 142 -11 144 -2 2 -4 -40 -5 -95z m-226 -1323 c-3 -9 -32 -72 -65
-141 -167 -354 -427 -619 -777 -795 -93 -47 -182 -85 -196 -85 -2 0 3 28 11
63 103 454 468 830 923 951 101 27 111 28 104 7z m699 -52 c382 -150 674 -484
777 -886 11 -40 18 -73 17 -73 -9 0 -141 57 -191 82 -330 167 -573 405 -742
728 -42 81 -93 196 -93 210 0 10 158 -32 232 -61z m-456 28 c8 -45 15 -70 38
-130 166 -439 698 -950 1113 -1070 88 -25 103 -32 74 -34 -39 -3 -158 -45
-238 -84 -298 -145 -635 -455 -826 -761 -78 -125 -144 -276 -162 -368 -7 -37
-13 -34 -20 11 -23 136 -158 385 -303 559 -71 85 -230 245 -305 308 -186 155
-407 282 -557 321 -41 11 -68 21 -60 24 8 3 46 15 84 26 347 108 769 470 1002
858 76 125 140 283 143 352 1 16 14 7 17 -12z m1230 -1548 c-111 -438 -453
-789 -893 -917 -54 -16 -102 -26 -107 -21 -12 11 73 195 146 317 156 258 369
463 633 607 75 42 237 116 242 111 2 -2 -8 -45 -21 -97z m-2482 84 c4 -5 11
-8 14 -8 11 -1 132 -57 202 -93 349 -183 630 -501 780 -881 22 -57 31 -54 -81
-27 -352 82 -690 362 -843 698 -49 108 -52 118 -76 204 -12 43 -24 87 -26 97
-5 17 16 24 30 10z"/>
<path d="M3610 4090 c0 -17 -103 -259 -110 -260 -3 0 -29 59 -59 130 -30 71
-56 128 -58 126 -2 -2 -4 -68 -5 -146 l0 -142 -102 101 c-98 97 -127 121 -106
84 15 -28 100 -246 97 -250 -2 -1 -59 20 -127 47 -69 28 -128 49 -132 48 -5
-2 34 -45 86 -96 52 -51 98 -97 101 -102 3 -5 -53 -8 -135 -8 -77 1 -142 0
-144 -3 -2 -2 54 -28 124 -58 71 -30 127 -58 125 -62 -3 -4 -62 -31 -131 -60
l-126 -54 147 -5 146 -5 -100 -100 c-56 -55 -97 -101 -93 -103 4 -1 63 20 132
48 68 27 125 48 127 47 1 -2 -17 -53 -41 -113 -67 -168 -67 -168 7 -94 35 36
82 82 105 104 l40 39 1 -143 c0 -78 2 -144 4 -146 2 -2 28 55 57 126 30 72 57
130 60 130 3 0 30 -58 60 -129 30 -71 56 -128 58 -126 2 2 3 68 3 146 l-2 143
22 -20 c12 -10 58 -56 104 -101 45 -46 84 -83 87 -83 3 0 -19 59 -48 132 -30
72 -53 133 -51 134 2 2 61 -19 131 -47 70 -28 130 -49 132 -46 2 2 -29 35 -68
74 -40 39 -86 84 -102 101 l-29 32 142 -1 c79 0 145 2 147 4 2 1 -55 28 -126
58 -94 39 -125 57 -117 65 7 6 65 33 129 60 65 27 118 51 118 54 0 3 -66 4
-146 3 l-147 -2 34 36 c19 19 68 69 109 110 l75 75 -55 -22 c-30 -12 -75 -29
-100 -38 -25 -8 -49 -18 -55 -22 -11 -8 -75 -30 -75 -26 0 1 23 58 50 126 28
68 50 128 50 134 0 6 -47 -36 -104 -93 l-105 -104 0 148 c-1 82 -3 151 -6 153
-3 3 -5 -1 -5 -8z m10 -380 c43 -22 81 -67 105 -124 51 -122 -22 -274 -152
-317 -98 -32 -221 14 -278 105 -27 44 -30 58 -30 126 0 68 3 82 30 126 69 111
204 146 325 84z"/>
<path d="M1035 4978 c-295 -116 -563 -315 -737 -545 -135 -181 -244 -431 -274
-633 -3 -19 -8 -46 -11 -60 -12 -61 -11 -388 3 -475 46 -291 144 -522 312
-728 148 -182 339 -335 555 -443 95 -48 187 -87 193 -81 2 2 -26 25 -62 51
-92 68 -215 186 -300 289 -63 74 -97 121 -182 252 -36 56 -119 243 -152 345
-63 191 -84 332 -84 555 0 270 45 493 148 724 123 277 342 546 583 718 35 25
63 47 63 49 0 2 -1 4 -2 3 -2 -1 -25 -10 -53 -21z"/>
<path d="M5934 4978 c62 -43 204 -168 281 -250 328 -347 500 -789 490 -1263
-4 -156 -10 -217 -31 -320 -8 -38 -17 -81 -20 -95 -18 -93 -108 -311 -185
-450 -105 -188 -324 -425 -529 -573 l-25 -18 25 7 c106 27 375 178 500 281 91
74 237 231 298 321 116 169 203 384 238 587 23 130 27 411 8 532 -63 405 -247
724 -564 976 -41 33 -104 79 -141 101 -36 23 -74 47 -85 53 -10 7 -32 19 -49
27 -16 7 -64 29 -105 49 -83 39 -139 57 -106 35z"/>
<path d="M836 3501 c7 -7 94 -9 94 -2 0 4 -22 7 -50 7 -27 0 -47 -2 -44 -5z"/>
<path d="M2010 1081 c0 -21 58 -160 97 -230 98 -180 183 -293 322 -431 190
-187 413 -311 676 -375 143 -34 197 -40 405 -39 151 0 206 4 298 22 530 106
926 442 1158 985 18 42 32 77 30 77 -2 0 -30 -35 -62 -78 -31 -42 -107 -127
-168 -188 -184 -184 -351 -296 -611 -409 -75 -33 -237 -78 -345 -96 -198 -33
-455 -32 -635 2 -27 5 -66 12 -85 15 -57 9 -266 82 -348 121 -99 47 -241 132
-306 183 -164 129 -323 292 -398 409 -15 25 -28 39 -28 32z"/>
</g>
</svg>
