<?xml version="1.0" encoding="UTF-8" standalone="no"?>
<!-- Created with Inkscape (http://www.inkscape.org/) -->

<svg
   xmlns:dc="http://purl.org/dc/elements/1.1/"
   xmlns:cc="http://creativecommons.org/ns#"
   xmlns:rdf="http://www.w3.org/1999/02/22-rdf-syntax-ns#"
   xmlns:svg="http://www.w3.org/2000/svg"
   xmlns="http://www.w3.org/2000/svg"
   xmlns:sodipodi="http://sodipodi.sourceforge.net/DTD/sodipodi-0.dtd"
   xmlns:inkscape="http://www.inkscape.org/namespaces/inkscape"
   width="720"
   height="720"
   viewBox="0 0 720 720"
   id="svg4255"
   version="1.1"
   inkscape:version="0.91 r13725"
   sodipodi:docname="Final Cosmere.svg">
  <defs
     id="defs4257" />
  <sodipodi:namedview
     id="base"
     pagecolor="#ffffff"
     bordercolor="#666666"
     borderopacity="1.0"
     inkscape:pageopacity="0.0"
     inkscape:pageshadow="2"
     inkscape:zoom="0.49497475"
     inkscape:cx="-251.13761"
     inkscape:cy="431.63741"
     inkscape:document-units="px"
     inkscape:current-layer="layer1"
     showgrid="false"
     fit-margin-top="0"
     fit-margin-left="0"
     fit-margin-right="0"
     fit-margin-bottom="0"
     units="px"
     inkscape:window-width="1536"
     inkscape:window-height="801"
     inkscape:window-x="-8"
     inkscape:window-y="-8"
     inkscape:window-maximized="1" />
  <metadata
     id="metadata4260">
    <rdf:RDF>
      <cc:Work
         rdf:about="">
        <dc:format>image/svg+xml</dc:format>
        <dc:type
           rdf:resource="http://purl.org/dc/dcmitype/StillImage" />
        <dc:title></dc:title>
      </cc:Work>
    </rdf:RDF>
  </metadata>
  <g
     inkscape:label="Layer 1"
     inkscape:groupmode="layer"
     id="layer1"
     transform="translate(1837.1331,530.50471)">
    <path
       style="display:inline;opacity:1;fill:#FFFFFF;fill-rule:evenodd;stroke:none;stroke-width:1px;stroke-linecap:butt;stroke-linejoin:miter;stroke-opacity:1"
       d="m -1631.6331,-416.50471 c 0,0 48.9967,-84.00288 155.002,-84.00288 106.0052,0 153.998,84.00288 153.998,84.00288 0,0 -31.9965,-114 -153.998,-114 -122.0016,0 -155.002,114 -155.002,114 z"
       id="path4180"
       inkscape:connector-curvature="0"
       sodipodi:nodetypes="czczc"
       inkscape:transform-center-x="0.50391262"
       inkscape:transform-center-y="-303.00259" />
    <path
       inkscape:transform-center-y="303.00258"
       inkscape:transform-center-x="-0.5039101"
       sodipodi:nodetypes="czczc"
       inkscape:connector-curvature="0"
       id="path4195"
       d="m -1322.6331,75.49531 c 0,0 -48.9967,84.00288 -155.002,84.00288 -106.0052,0 -153.998,-84.00288 -153.998,-84.00288 0,0 31.9965,114 153.998,114 122.0016,0 155.002,-114 155.002,-114 z"
       style="display:inline;opacity:1;fill:#FFFFFF;fill-rule:evenodd;stroke:none;stroke-width:1px;stroke-linecap:butt;stroke-linejoin:miter;stroke-opacity:1" />
    <path
       style="display:inline;opacity:1;fill:#FFFFFF;fill-rule:evenodd;stroke:none;stroke-width:1px;stroke-linecap:butt;stroke-linejoin:miter;stroke-opacity:1"
       d="m -1231.1331,-325.00471 c 0,0 84.0029,48.99672 84.0029,155.00196 0,106.005242 -84.0029,153.99804 -84.0029,153.99804 0,0 114,-31.996495 114,-153.99804 0,-122.00155 -114,-155.00196 -114,-155.00196 z"
       id="path4197"
       inkscape:connector-curvature="0"
       sodipodi:nodetypes="czczc"
       inkscape:transform-center-x="-303.00257"
       inkscape:transform-center-y="-0.5039047" />
    <path
       inkscape:transform-center-y="0.50390806"
       inkscape:transform-center-x="303.00257"
       sodipodi:nodetypes="czczc"
       inkscape:connector-curvature="0"
       id="path4199"
       d="m -1723.1331,-16.00471 c 0,0 -84.0029,-48.99672 -84.0029,-155.00196 0,-106.00525 84.0029,-153.99804 84.0029,-153.99804 0,0 -114,31.99649 -114,153.99804 0,122.001542 114,155.00196 114,155.00196 z"
       style="display:inline;opacity:1;fill:#FFFFFF;fill-rule:evenodd;stroke:none;stroke-width:1px;stroke-linecap:butt;stroke-linejoin:miter;stroke-opacity:1" />
    <path
       style="color:#FFFFFF;font-style:normal;font-variant:normal;font-weight:normal;font-stretch:normal;font-size:medium;line-height:normal;font-family:sans-serif;text-indent:0;text-align:start;text-decoration:none;text-decoration-line:none;text-decoration-style:solid;text-decoration-color:#FFFFFF;letter-spacing:normal;word-spacing:normal;text-transform:none;direction:ltr;block-progression:tb;writing-mode:lr-tb;baseline-shift:baseline;text-anchor:start;white-space:normal;clip-rule:nonzero;display:inline;overflow:visible;visibility:visible;opacity:1;isolation:auto;mix-blend-mode:normal;color-interpolation:sRGB;color-interpolation-filters:linearRGB;solid-color:#FFFFFF;solid-opacity:1;fill:#FFFFFF;fill-opacity:1;fill-rule:nonzero;stroke:none;stroke-width:10;stroke-linecap:butt;stroke-linejoin:miter;stroke-miterlimit:4;stroke-dasharray:none;stroke-dashoffset:0;stroke-opacity:1;color-rendering:auto;image-rendering:auto;shape-rendering:auto;text-rendering:auto;enable-background:accumulate"
       d="m -1477.1269,-203.51483 -12.5022,-28.98988 0,31.99775 0.1211,-0.0501 -22.6263,-22.62582 11.675,29.33766 -29.3516,-11.66112 22.6261,22.62573 0.05,-0.1212 -31.9983,0 29.0066,12.4839 -29.0066,12.51435 31.9983,0 -0.051,-0.12262 -22.6262,22.62582 29.3485,-11.68309 -11.6718,29.35952 22.626,-22.62553 -0.1271,-0.053 1e-4,31.99775 12.5072,-29.01455 12.4915,29.01455 -10e-5,-31.99775 -0.1317,0.0546 22.6262,22.62582 -11.6531,-29.35956 29.3299,11.68313 -22.6263,-22.62583 -0.039,0.11381 31.9984,-1e-5 -28.9966,-12.50567 28.9966,-12.49257 -31.9984,2.4e-4 0.052,0.12608 22.6263,-22.62585 -29.3455,11.66307 11.6687,-29.33945 -22.6263,22.62582 0.1253,0.0519 0,-31.99775 z m -2e-4,8.00043 c 13.8272,-0.0194 24.9942,11.20501 25.0012,25.00198 0.01,13.79697 -11.1764,24.98385 -25.0024,25.00061 -13.826,0.0168 -24.9977,-11.20642 -25.0012,-25.002 0,-13.79558 11.1752,-24.98124 25.0024,-25.00059 z"
       id="path4202"
       inkscape:connector-curvature="0"
       sodipodi:nodetypes="ccccccccccccccccccccccccccccccccccccccccczzzzz"
       inkscape:transform-center-y="-0.013184097"
       inkscape:transform-center-x="-0.003510923" />
    <path
       style="color:#FFFFFF;font-style:normal;font-variant:normal;font-weight:normal;font-stretch:normal;font-size:medium;line-height:normal;font-family:sans-serif;text-indent:0;text-align:start;text-decoration:none;text-decoration-line:none;text-decoration-style:solid;text-decoration-color:#FFFFFF;letter-spacing:normal;word-spacing:normal;text-transform:none;direction:ltr;block-progression:tb;writing-mode:lr-tb;baseline-shift:baseline;text-anchor:start;white-space:normal;clip-rule:nonzero;display:inline;overflow:visible;visibility:visible;opacity:1;isolation:auto;mix-blend-mode:normal;color-interpolation:sRGB;color-interpolation-filters:linearRGB;solid-color:#FFFFFF;solid-opacity:1;fill:#FFFFFF;fill-opacity:1;fill-rule:nonzero;stroke:none;stroke-width:1;stroke-linecap:butt;stroke-linejoin:miter;stroke-miterlimit:4;stroke-dasharray:none;stroke-dashoffset:0;stroke-opacity:1;color-rendering:auto;image-rendering:auto;shape-rendering:auto;text-rendering:auto;enable-background:accumulate"
       d="m -1476.4283,-467.50471 c 0,223.4961 -73.6744,296.99609 -297.7048,297 224.0304,-0.004 297.7048,73.496077 297.7048,297 0,-223.503923 73.6744,-297.00391 296.2952,-299.78125 -222.6208,2.77734 -296.2952,-70.72265 -296.2952,-294.21875 z m 0,166 c 6.5115,51 80.1938,124.49218 131.3109,131 -51.1171,6.5 -124.7915,80.000007 -131.2704,130.672887 -6.5598,-50.67288 -80.2342,-124.172857 -131.3514,-130.672887 51.1172,-6.50784 124.7994,-80 131.3109,-131 z"
       id="path4211"
       inkscape:connector-curvature="0"
       sodipodi:nodetypes="cccccccccc" />
    <ellipse
       style="opacity:1;fill:none;stroke:#FFFFFF;stroke-width:19.99454498;stroke-miterlimit:4;stroke-dasharray:none"
       id="path4238"
       cx="-1477.1331"
       cy="-170.50471"
       rx="142.50272"
       ry="142.50273" />
  </g>
</svg>
